<?xml version="1.0" standalone="no"?>
<!DOCTYPE svg PUBLIC "-//W3C//DTD SVG 20010904//EN"
 "http://www.w3.org/TR/2001/REC-SVG-20010904/DTD/svg10.dtd">
<svg version="1.0" xmlns="http://www.w3.org/2000/svg"
 width="370.000000pt" height="370.000000pt" viewBox="0 0 370.000000 370.000000"
 preserveAspectRatio="xMidYMid meet">
<metadata>
Created by potrace 1.14, written by Peter Selinger 2001-2017
</metadata>
<g transform="translate(0.000000,370.000000) scale(0.100000,-0.100000)"
fill="#000000" stroke="none">
<path d="M1909 3670 c-1 -19 -3 -44 -4 -55 -1 -11 -3 -27 -3 -35 -2 -11 -15
-16 -49 -16 -92 -1 -232 -14 -257 -23 -32 -13 -43 -31 -17 -31 58 0 68 -30 16
-49 -20 -7 -33 -17 -29 -23 4 -6 1 -8 -7 -6 -8 3 -22 -1 -31 -10 -10 -8 -35
-16 -55 -18 -21 -2 -51 -5 -68 -6 -16 -2 -37 -7 -44 -12 -8 -5 -43 -10 -77
-11 -50 -1 -70 -6 -105 -29 -76 -50 -130 -98 -125 -111 6 -17 -63 -80 -89 -81
-56 -5 -116 -16 -110 -22 3 -3 28 -16 55 -27 l48 -20 -47 -51 c-45 -48 -50
-51 -95 -49 -25 1 -49 -2 -52 -6 -3 -5 12 -9 33 -9 l38 -1 -33 -29 c-18 -17
-41 -30 -52 -30 -11 0 -20 -5 -20 -10 0 -13 40 -29 56 -23 6 2 25 -9 42 -26
24 -24 27 -33 17 -41 -20 -17 -13 -36 38 -94 26 -30 47 -57 47 -59 0 -2 -8 -4
-17 -4 -42 0 -44 -2 -31 -23 7 -11 30 -32 50 -47 l38 -25 -37 -29 c-19 -16
-30 -29 -22 -30 58 -2 111 -9 123 -16 8 -5 26 -29 39 -53 13 -26 36 -51 53
-59 28 -15 29 -15 6 -20 -13 -3 -24 -10 -25 -16 -3 -17 66 -45 113 -45 43 0
44 -1 22 -16 -12 -8 -27 -25 -33 -36 -9 -18 -8 -24 7 -35 17 -13 17 -14 -3
-50 -16 -27 -29 -38 -48 -40 -31 -2 -159 -71 -230 -123 -150 -111 -254 -178
-405 -260 -161 -89 -166 -93 -193 -139 -34 -62 -66 -145 -73 -189 -2 -21 -7
-48 -9 -62 -3 -14 -7 -65 -10 -115 -4 -84 -10 -145 -21 -255 -7 -62 -32 -146
-60 -202 -28 -56 -31 -117 -8 -195 20 -68 15 -97 -36 -198 -44 -88 -48 -120
-24 -186 15 -43 14 -112 -2 -166 l-6 -23 1771 0 c974 0 1771 3 1771 8 0 4 -12
54 -26 112 -34 133 -39 305 -11 359 23 46 23 49 -22 143 -36 75 -40 93 -45
188 -3 58 -10 143 -15 190 -5 47 -12 131 -16 187 -6 99 -11 141 -20 173 -3 8
-7 33 -11 55 -11 74 -20 115 -47 210 -22 77 -33 98 -69 131 -33 31 -212 154
-223 154 -4 0 -45 20 -93 43 -48 24 -127 61 -177 82 -49 21 -99 45 -109 54
-11 9 -16 10 -12 3 4 -7 -13 1 -37 18 -25 16 -51 30 -58 30 -8 0 -45 20 -83
44 -70 45 -72 54 -14 63 17 2 40 8 52 13 20 8 20 9 1 10 -50 1 -47 17 14 63
45 34 73 47 111 52 57 8 68 30 20 40 -16 4 -30 9 -30 12 0 2 17 19 37 36 59
51 122 120 117 129 -3 4 -19 -1 -36 -12 -17 -10 -36 -16 -41 -13 -5 3 -5 8 0
12 26 18 63 83 76 134 17 63 41 107 59 107 15 0 1 13 -17 16 -24 4 -73 54
-131 137 -51 72 -54 80 -38 91 12 10 14 17 7 30 -18 32 -107 118 -133 128 -26
11 -25 12 25 23 l29 6 -33 21 c-18 12 -36 30 -41 42 -7 19 -16 21 -79 21 -61
0 -71 2 -71 18 0 11 15 23 42 34 34 13 38 18 22 23 -19 7 -74 4 -82 -5 -3 -2
-25 23 -49 58 l-44 62 3 -40 c3 -35 0 -40 -19 -41 -15 -1 -38 15 -67 46 -36
38 -50 47 -82 49 -22 1 -63 3 -93 5 -59 3 -60 4 -127 101 l-34 50 -1 -35z"/>
</g>
</svg>
